<svg height="512pt" viewBox="0 -1 512 512" width="512pt" xmlns="http://www.w3.org/2000/svg"><path d="m0 300v5c0 30.328125 24.671875 55 55 55h402c30.328125 0 55-24.671875 55-55v-5zm0 0"/><path d="m356 450h-30l-20-60h-100l-20 60h-30c-19.300781 0-35 15.699219-35 35v10c0 8.285156 6.714844 15 15 15h240c8.285156 0 15-6.714844 15-15v-10c0-19.300781-15.699219-35-35-35zm0 0"/><path d="m457 0h-402c-30.328125 0-55 24.671875-55 55v215h512v-215c0-30.328125-24.671875-55-55-55zm-310 195c0 8.285156-6.714844 15-15 15s-15-6.714844-15-15v-45h-34v45c0 8.285156-6.714844 15-15 15s-15-6.714844-15-15v-120c0-8.28125 6.714844-15 15-15s15 6.71875 15 15v45h34v-45c0-8.28125 6.714844-15 15-15s15 6.71875 15 15zm94-105h-15v105c0 8.285156-6.714844 15-15 15s-15-6.714844-15-15v-105h-15c-8.285156 0-15-6.714844-15-15 0-8.28125 6.714844-15 15-15h60c8.285156 0 15 6.71875 15 15 0 8.285156-6.714844 15-15 15zm124 105c0 8.285156-6.714844 15-15 15s-15-6.714844-15-15v-56.457031l-1.585938 3.167969c-2.539062 5.078124-7.730468 8.289062-13.414062 8.289062s-10.875-3.210938-13.414062-8.289062l-1.585938-3.167969v56.457031c0 8.285156-6.714844 15-15 15s-15-6.714844-15-15v-120c0-6.957031 4.78125-13 11.554688-14.597656 6.765624-1.597656 13.75 1.667968 16.859374 7.890625l16.585938 33.167969 16.585938-33.167969c3.109374-6.222657 10.097656-9.484375 16.859374-7.890625 6.773438 1.597656 11.554688 7.640625 11.554688 14.597656zm87 15h-50c-8.285156 0-15-6.714844-15-15v-120c0-8.28125 6.714844-15 15-15s15 6.71875 15 15v105h35c8.285156 0 15 6.71875 15 15 0 8.285156-6.714844 15-15 15zm0 0"/></svg>