<svg id="Capa_1" enable-background="new 0 0 512.001 512.001" height="512" viewBox="0 0 512.001 512.001" width="512" xmlns="http://www.w3.org/2000/svg"><path d="m511.495 247.645c2.563-21.923-4.697-43.67-19.92-59.666-12.385-13.014-28.74-20.875-46.097-22.637 2.619-13.128 1.981-26.85-2.086-40.001-7.162-23.155-24.11-41.771-46.5-51.075-16.934-7.037-35.556-8.094-52.92-3.283-3.059-14.143-9.523-27.5-19.082-38.884-17.132-20.399-42.241-32.099-68.89-32.099-26.814 0-52.023 11.819-69.163 32.427-9.419 11.325-15.783 24.558-18.81 38.556-17.364-4.812-35.986-3.755-52.919 3.283-22.391 9.304-39.339 27.92-46.501 51.075-4.069 13.156-4.706 26.883-2.083 40.015-17.369 1.777-33.757 9.655-46.1 22.623-15.223 15.995-22.483 37.742-19.92 59.666 2.485 21.261 13.921 40.212 31.455 52.356-10.78 7.283-19.141 17.944-23.544 30.703-5.944 17.221-3.941 36.032 5.495 51.608 9.406 15.525 25.064 26.002 42.994 28.779l76.096 14.18v31.373c0 30.523 24.833 55.356 55.357 55.356h135.287c30.523 0 55.356-24.833 55.356-55.357v-31.447l76.088-14.104c17.932-2.775 33.594-13.253 43-28.78 9.436-15.576 11.439-34.387 5.495-51.608-4.439-12.861-12.796-23.484-23.511-30.726 17.516-12.145 28.939-31.085 31.423-52.333zm-166.816-142.22c.179-1.036.333-2.072.476-3.109 12.765-5.572 27.275-5.728 40.225-.346 14.134 5.873 24.833 17.623 29.352 32.236 4.534 14.662 2.332 30.45-6.043 43.314-.105.161-.207.324-.306.49l-98.23 164.395zm-134.776-53.815c11.423-13.733 28.224-21.61 46.097-21.61 17.763 0 34.499 7.797 45.915 21.392 11.454 13.639 16.255 31.525 13.176 49.072-.025.143-.048.287-.069.431l-44.253 303.745c-1.263 7.17-7.453 12.36-14.769 12.36-7.772 0-14.339-6.055-14.951-13.784-.026-.328-.063-.655-.11-.98l-43.833-300.644c-.027-.19-.059-.38-.094-.569-3.266-17.625 1.432-35.634 12.891-49.413zm-112.634 82.595c4.52-14.613 15.218-26.363 29.352-32.236 12.95-5.382 27.462-5.225 40.229.348.178 1.292.376 2.585.611 3.875l34.455 236.323-98.298-164.505c-.099-.166-.201-.329-.306-.49-8.375-12.865-10.577-28.652-6.043-43.315zm-55.112 74.457c9.537-10.021 23.139-14.933 36.811-13.418l104.838 175.454-133.242-94.299c-.157-.111-.316-.219-.478-.324-11.043-7.194-18.254-18.826-19.784-31.913-1.524-13.043 2.797-25.982 11.855-35.5zm19.485 172.805c-9.205-1.382-17.25-6.74-22.071-14.699-4.803-7.929-5.822-17.506-2.795-26.275 3.646-10.564 12.632-18.292 23.587-20.406l117.252 82.981-115.453-21.513c-.173-.033-.346-.062-.52-.088zm287.358 75.176c0 13.982-11.375 25.357-25.357 25.357h-135.286c-13.982 0-25.357-11.375-25.357-25.357v-25.783s85.252 15.886 85.252 15.886c5.748 1.254 12.085.435 14.481.002 0 0 86.266-15.991 86.266-15.991v25.886zm123.43-89.875c-4.822 7.959-12.866 13.316-22.071 14.699-.169.025-.338.054-.506.085l-115.252 21.364 117.055-82.842c10.883 2.08 19.882 9.735 23.57 20.418 3.026 8.77 2.007 18.347-2.796 26.276zm9.268-122.607c-1.53 13.087-8.741 24.719-19.784 31.913-.161.105-.321.213-.478.324l-133.243 94.299 104.834-175.447c13.682-1.525 27.245 3.354 36.816 13.41 9.059 9.52 13.38 22.46 11.855 35.501z"/></svg>